<mxfile host="app.diagrams.net" modified="2023-01-24T15:49:50.223Z" agent="5.0 (Windows NT 10.0; Win64; x64) AppleWebKit/537.36 (KHTML, like Gecko) Chrome/109.0.0.0 Safari/537.36" etag="trWNjNmr4XJ4ZMmcqPGR" version="20.8.10" type="github">
  <diagram id="C5RBs43oDa-KdzZeNtuy" name="Page-1">
    <mxGraphModel dx="1050" dy="549" grid="1" gridSize="10" guides="1" tooltips="1" connect="1" arrows="1" fold="1" page="1" pageScale="1" pageWidth="827" pageHeight="1169" math="0" shadow="0">
      <root>
        <mxCell id="WIyWlLk6GJQsqaUBKTNV-0" />
        <mxCell id="WIyWlLk6GJQsqaUBKTNV-1" parent="WIyWlLk6GJQsqaUBKTNV-0" />
        <mxCell id="jD5MXzvCS2VLBwQkLJYc-0" value="" style="shape=folder;fontStyle=1;spacingTop=2;tabWidth=40;tabHeight=14;tabPosition=left;html=1;" vertex="1" parent="WIyWlLk6GJQsqaUBKTNV-1">
          <mxGeometry x="70" y="30" width="350" height="350" as="geometry" />
        </mxCell>
        <mxCell id="jD5MXzvCS2VLBwQkLJYc-5" value="app.uptowncampus" style="text;html=1;align=center;verticalAlign=middle;resizable=0;points=[];autosize=1;strokeColor=none;fillColor=none;" vertex="1" parent="WIyWlLk6GJQsqaUBKTNV-1">
          <mxGeometry x="180" y="60" width="130" height="30" as="geometry" />
        </mxCell>
        <mxCell id="jD5MXzvCS2VLBwQkLJYc-6" value="" style="shape=folder;fontStyle=1;spacingTop=2;tabWidth=40;tabHeight=14;tabPosition=left;html=1;" vertex="1" parent="WIyWlLk6GJQsqaUBKTNV-1">
          <mxGeometry x="515" y="30" width="350" height="350" as="geometry" />
        </mxCell>
        <mxCell id="jD5MXzvCS2VLBwQkLJYc-7" value="app.uptowncampus.dto" style="text;html=1;align=center;verticalAlign=middle;resizable=0;points=[];autosize=1;strokeColor=none;fillColor=none;" vertex="1" parent="WIyWlLk6GJQsqaUBKTNV-1">
          <mxGeometry x="610" y="70" width="150" height="30" as="geometry" />
        </mxCell>
        <mxCell id="jD5MXzvCS2VLBwQkLJYc-12" value="AppModule" style="swimlane;fontStyle=1;align=center;verticalAlign=top;childLayout=stackLayout;horizontal=1;startSize=26;horizontalStack=0;resizeParent=1;resizeParentMax=0;resizeLast=0;collapsible=1;marginBottom=0;" vertex="1" parent="WIyWlLk6GJQsqaUBKTNV-1">
          <mxGeometry x="165" y="130" width="160" height="34" as="geometry" />
        </mxCell>
        <mxCell id="jD5MXzvCS2VLBwQkLJYc-14" value="" style="line;strokeWidth=1;fillColor=none;align=left;verticalAlign=middle;spacingTop=-1;spacingLeft=3;spacingRight=3;rotatable=0;labelPosition=right;points=[];portConstraint=eastwest;strokeColor=inherit;" vertex="1" parent="jD5MXzvCS2VLBwQkLJYc-12">
          <mxGeometry y="26" width="160" height="8" as="geometry" />
        </mxCell>
        <mxCell id="jD5MXzvCS2VLBwQkLJYc-16" value="RetrofitClientInstance" style="swimlane;fontStyle=1;align=center;verticalAlign=top;childLayout=stackLayout;horizontal=1;startSize=26;horizontalStack=0;resizeParent=1;resizeParentMax=0;resizeLast=0;collapsible=1;marginBottom=0;" vertex="1" parent="WIyWlLk6GJQsqaUBKTNV-1">
          <mxGeometry x="165" y="220" width="160" height="34" as="geometry" />
        </mxCell>
        <mxCell id="jD5MXzvCS2VLBwQkLJYc-17" value="" style="line;strokeWidth=1;fillColor=none;align=left;verticalAlign=middle;spacingTop=-1;spacingLeft=3;spacingRight=3;rotatable=0;labelPosition=right;points=[];portConstraint=eastwest;strokeColor=inherit;" vertex="1" parent="jD5MXzvCS2VLBwQkLJYc-16">
          <mxGeometry y="26" width="160" height="8" as="geometry" />
        </mxCell>
        <mxCell id="jD5MXzvCS2VLBwQkLJYc-18" value="Classname" style="swimlane;fontStyle=1;align=center;verticalAlign=top;childLayout=stackLayout;horizontal=1;startSize=26;horizontalStack=0;resizeParent=1;resizeParentMax=0;resizeLast=0;collapsible=1;marginBottom=0;" vertex="1" parent="WIyWlLk6GJQsqaUBKTNV-1">
          <mxGeometry x="535" y="130" width="160" height="86" as="geometry" />
        </mxCell>
        <mxCell id="jD5MXzvCS2VLBwQkLJYc-19" value="+ field: type" style="text;strokeColor=none;fillColor=none;align=left;verticalAlign=top;spacingLeft=4;spacingRight=4;overflow=hidden;rotatable=0;points=[[0,0.5],[1,0.5]];portConstraint=eastwest;" vertex="1" parent="jD5MXzvCS2VLBwQkLJYc-18">
          <mxGeometry y="26" width="160" height="26" as="geometry" />
        </mxCell>
        <mxCell id="jD5MXzvCS2VLBwQkLJYc-20" value="" style="line;strokeWidth=1;fillColor=none;align=left;verticalAlign=middle;spacingTop=-1;spacingLeft=3;spacingRight=3;rotatable=0;labelPosition=right;points=[];portConstraint=eastwest;strokeColor=inherit;" vertex="1" parent="jD5MXzvCS2VLBwQkLJYc-18">
          <mxGeometry y="52" width="160" height="8" as="geometry" />
        </mxCell>
        <mxCell id="jD5MXzvCS2VLBwQkLJYc-21" value="+ method(type): type" style="text;strokeColor=none;fillColor=none;align=left;verticalAlign=top;spacingLeft=4;spacingRight=4;overflow=hidden;rotatable=0;points=[[0,0.5],[1,0.5]];portConstraint=eastwest;" vertex="1" parent="jD5MXzvCS2VLBwQkLJYc-18">
          <mxGeometry y="60" width="160" height="26" as="geometry" />
        </mxCell>
        <mxCell id="jD5MXzvCS2VLBwQkLJYc-22" value="" style="shape=folder;fontStyle=1;spacingTop=2;tabWidth=40;tabHeight=14;tabPosition=left;html=1;" vertex="1" parent="WIyWlLk6GJQsqaUBKTNV-1">
          <mxGeometry x="40" y="430" width="465" height="220" as="geometry" />
        </mxCell>
        <mxCell id="jD5MXzvCS2VLBwQkLJYc-23" value="app.uptowncampus.ui" style="text;html=1;align=center;verticalAlign=middle;resizable=0;points=[];autosize=1;strokeColor=none;fillColor=none;" vertex="1" parent="WIyWlLk6GJQsqaUBKTNV-1">
          <mxGeometry x="215" y="470" width="140" height="30" as="geometry" />
        </mxCell>
        <mxCell id="jD5MXzvCS2VLBwQkLJYc-24" value="MainActivity" style="swimlane;fontStyle=1;align=center;verticalAlign=top;childLayout=stackLayout;horizontal=1;startSize=26;horizontalStack=0;resizeParent=1;resizeParentMax=0;resizeLast=0;collapsible=1;marginBottom=0;" vertex="1" parent="WIyWlLk6GJQsqaUBKTNV-1">
          <mxGeometry x="65" y="530" width="160" height="34" as="geometry" />
        </mxCell>
        <mxCell id="jD5MXzvCS2VLBwQkLJYc-26" value="" style="line;strokeWidth=1;fillColor=none;align=left;verticalAlign=middle;spacingTop=-1;spacingLeft=3;spacingRight=3;rotatable=0;labelPosition=right;points=[];portConstraint=eastwest;strokeColor=inherit;" vertex="1" parent="jD5MXzvCS2VLBwQkLJYc-24">
          <mxGeometry y="26" width="160" height="8" as="geometry" />
        </mxCell>
        <mxCell id="jD5MXzvCS2VLBwQkLJYc-28" value="ViewModel" style="swimlane;fontStyle=1;align=center;verticalAlign=top;childLayout=stackLayout;horizontal=1;startSize=26;horizontalStack=0;resizeParent=1;resizeParentMax=0;resizeLast=0;collapsible=1;marginBottom=0;" vertex="1" parent="WIyWlLk6GJQsqaUBKTNV-1">
          <mxGeometry x="325" y="530" width="160" height="34" as="geometry" />
        </mxCell>
        <mxCell id="jD5MXzvCS2VLBwQkLJYc-29" value="" style="line;strokeWidth=1;fillColor=none;align=left;verticalAlign=middle;spacingTop=-1;spacingLeft=3;spacingRight=3;rotatable=0;labelPosition=right;points=[];portConstraint=eastwest;strokeColor=inherit;" vertex="1" parent="jD5MXzvCS2VLBwQkLJYc-28">
          <mxGeometry y="26" width="160" height="8" as="geometry" />
        </mxCell>
        <mxCell id="jD5MXzvCS2VLBwQkLJYc-30" value="Use" style="endArrow=open;endSize=12;dashed=1;html=1;rounded=0;" edge="1" parent="WIyWlLk6GJQsqaUBKTNV-1">
          <mxGeometry width="160" relative="1" as="geometry">
            <mxPoint x="225" y="550" as="sourcePoint" />
            <mxPoint x="325" y="550" as="targetPoint" />
          </mxGeometry>
        </mxCell>
        <mxCell id="jD5MXzvCS2VLBwQkLJYc-31" value="" style="shape=folder;fontStyle=1;spacingTop=2;tabWidth=40;tabHeight=14;tabPosition=left;html=1;" vertex="1" parent="WIyWlLk6GJQsqaUBKTNV-1">
          <mxGeometry x="570" y="430" width="410" height="350" as="geometry" />
        </mxCell>
        <mxCell id="jD5MXzvCS2VLBwQkLJYc-32" value="app.uptowncampus.service" style="text;html=1;align=center;verticalAlign=middle;resizable=0;points=[];autosize=1;strokeColor=none;fillColor=none;" vertex="1" parent="WIyWlLk6GJQsqaUBKTNV-1">
          <mxGeometry x="655" y="470" width="170" height="30" as="geometry" />
        </mxCell>
        <mxCell id="jD5MXzvCS2VLBwQkLJYc-33" value="iBuildingService" style="swimlane;fontStyle=1;align=center;verticalAlign=top;childLayout=stackLayout;horizontal=1;startSize=26;horizontalStack=0;resizeParent=1;resizeParentMax=0;resizeLast=0;collapsible=1;marginBottom=0;" vertex="1" parent="WIyWlLk6GJQsqaUBKTNV-1">
          <mxGeometry x="590" y="530" width="160" height="60" as="geometry" />
        </mxCell>
        <mxCell id="jD5MXzvCS2VLBwQkLJYc-35" value="" style="line;strokeWidth=1;fillColor=none;align=left;verticalAlign=middle;spacingTop=-1;spacingLeft=3;spacingRight=3;rotatable=0;labelPosition=right;points=[];portConstraint=eastwest;strokeColor=inherit;" vertex="1" parent="jD5MXzvCS2VLBwQkLJYc-33">
          <mxGeometry y="26" width="160" height="8" as="geometry" />
        </mxCell>
        <mxCell id="jD5MXzvCS2VLBwQkLJYc-36" value="fetchBuilding()" style="text;strokeColor=none;fillColor=none;align=left;verticalAlign=top;spacingLeft=4;spacingRight=4;overflow=hidden;rotatable=0;points=[[0,0.5],[1,0.5]];portConstraint=eastwest;" vertex="1" parent="jD5MXzvCS2VLBwQkLJYc-33">
          <mxGeometry y="34" width="160" height="26" as="geometry" />
        </mxCell>
        <mxCell id="jD5MXzvCS2VLBwQkLJYc-37" value="BuildingServiceStub" style="swimlane;fontStyle=1;align=center;verticalAlign=top;childLayout=stackLayout;horizontal=1;startSize=26;horizontalStack=0;resizeParent=1;resizeParentMax=0;resizeLast=0;collapsible=1;marginBottom=0;" vertex="1" parent="WIyWlLk6GJQsqaUBKTNV-1">
          <mxGeometry x="590" y="670" width="160" height="34" as="geometry" />
        </mxCell>
        <mxCell id="jD5MXzvCS2VLBwQkLJYc-38" value="" style="line;strokeWidth=1;fillColor=none;align=left;verticalAlign=middle;spacingTop=-1;spacingLeft=3;spacingRight=3;rotatable=0;labelPosition=right;points=[];portConstraint=eastwest;strokeColor=inherit;" vertex="1" parent="jD5MXzvCS2VLBwQkLJYc-37">
          <mxGeometry y="26" width="160" height="8" as="geometry" />
        </mxCell>
        <mxCell id="jD5MXzvCS2VLBwQkLJYc-40" value="Use" style="endArrow=open;endSize=12;dashed=1;html=1;rounded=0;entryX=0;entryY=0.25;entryDx=0;entryDy=0;" edge="1" parent="WIyWlLk6GJQsqaUBKTNV-1" target="jD5MXzvCS2VLBwQkLJYc-33">
          <mxGeometry width="160" relative="1" as="geometry">
            <mxPoint x="485" y="546.5" as="sourcePoint" />
            <mxPoint x="585" y="546.5" as="targetPoint" />
          </mxGeometry>
        </mxCell>
        <mxCell id="jD5MXzvCS2VLBwQkLJYc-41" value="BuildingService" style="swimlane;fontStyle=1;align=center;verticalAlign=top;childLayout=stackLayout;horizontal=1;startSize=26;horizontalStack=0;resizeParent=1;resizeParentMax=0;resizeLast=0;collapsible=1;marginBottom=0;" vertex="1" parent="WIyWlLk6GJQsqaUBKTNV-1">
          <mxGeometry x="790" y="670" width="160" height="34" as="geometry" />
        </mxCell>
        <mxCell id="jD5MXzvCS2VLBwQkLJYc-42" value="" style="line;strokeWidth=1;fillColor=none;align=left;verticalAlign=middle;spacingTop=-1;spacingLeft=3;spacingRight=3;rotatable=0;labelPosition=right;points=[];portConstraint=eastwest;strokeColor=inherit;" vertex="1" parent="jD5MXzvCS2VLBwQkLJYc-41">
          <mxGeometry y="26" width="160" height="8" as="geometry" />
        </mxCell>
        <mxCell id="jD5MXzvCS2VLBwQkLJYc-43" value="" style="shape=folder;fontStyle=1;spacingTop=2;tabWidth=40;tabHeight=14;tabPosition=left;html=1;" vertex="1" parent="WIyWlLk6GJQsqaUBKTNV-1">
          <mxGeometry x="97.5" y="704" width="350" height="350" as="geometry" />
        </mxCell>
        <mxCell id="jD5MXzvCS2VLBwQkLJYc-44" value="app.uptowncampus.dao" style="text;html=1;align=center;verticalAlign=middle;resizable=0;points=[];autosize=1;strokeColor=none;fillColor=none;" vertex="1" parent="WIyWlLk6GJQsqaUBKTNV-1">
          <mxGeometry x="192.5" y="744" width="150" height="30" as="geometry" />
        </mxCell>
        <mxCell id="jD5MXzvCS2VLBwQkLJYc-45" value="iBuildingDAO" style="swimlane;fontStyle=1;align=center;verticalAlign=top;childLayout=stackLayout;horizontal=1;startSize=26;horizontalStack=0;resizeParent=1;resizeParentMax=0;resizeLast=0;collapsible=1;marginBottom=0;" vertex="1" parent="WIyWlLk6GJQsqaUBKTNV-1">
          <mxGeometry x="117.5" y="804" width="160" height="34" as="geometry" />
        </mxCell>
        <mxCell id="jD5MXzvCS2VLBwQkLJYc-47" value="" style="line;strokeWidth=1;fillColor=none;align=left;verticalAlign=middle;spacingTop=-1;spacingLeft=3;spacingRight=3;rotatable=0;labelPosition=right;points=[];portConstraint=eastwest;strokeColor=inherit;" vertex="1" parent="jD5MXzvCS2VLBwQkLJYc-45">
          <mxGeometry y="26" width="160" height="8" as="geometry" />
        </mxCell>
        <mxCell id="jD5MXzvCS2VLBwQkLJYc-49" value="Use" style="endArrow=open;endSize=12;dashed=1;html=1;rounded=0;entryX=1;entryY=0.25;entryDx=0;entryDy=0;" edge="1" parent="WIyWlLk6GJQsqaUBKTNV-1" source="jD5MXzvCS2VLBwQkLJYc-42" target="jD5MXzvCS2VLBwQkLJYc-45">
          <mxGeometry width="160" relative="1" as="geometry">
            <mxPoint x="570" y="871.5" as="sourcePoint" />
            <mxPoint x="675" y="870" as="targetPoint" />
          </mxGeometry>
        </mxCell>
        <mxCell id="jD5MXzvCS2VLBwQkLJYc-54" value="RoomDatabase" style="swimlane;fontStyle=1;align=center;verticalAlign=top;childLayout=stackLayout;horizontal=1;startSize=26;horizontalStack=0;resizeParent=1;resizeParentMax=0;resizeLast=0;collapsible=1;marginBottom=0;" vertex="1" parent="WIyWlLk6GJQsqaUBKTNV-1">
          <mxGeometry x="590" y="890" width="160" height="34" as="geometry" />
        </mxCell>
        <mxCell id="jD5MXzvCS2VLBwQkLJYc-56" value="" style="line;strokeWidth=1;fillColor=none;align=left;verticalAlign=middle;spacingTop=-1;spacingLeft=3;spacingRight=3;rotatable=0;labelPosition=right;points=[];portConstraint=eastwest;strokeColor=inherit;" vertex="1" parent="jD5MXzvCS2VLBwQkLJYc-54">
          <mxGeometry y="26" width="160" height="8" as="geometry" />
        </mxCell>
      </root>
    </mxGraphModel>
  </diagram>
</mxfile>
